HIERARCHY
ROOT Hips
{
	OFFSET 0.000000 89.005402 0.000000
	CHANNELS 6 Xposition Yposition Zposition Xrotation Yrotation Zrotation
	JOINT Spine
	{
		OFFSET 0.116900 10.681000 0.373400
		CHANNELS 3 Xrotation Yrotation Zrotation
		JOINT Spine1
		{
			OFFSET 0.000000 13.840401 0.053500
			CHANNELS 3 Xrotation Yrotation Zrotation
			JOINT Spine2
			{
				OFFSET 0.000000 14.712700 -0.366200
				CHANNELS 3 Xrotation Yrotation Zrotation
				JOINT Neck
				{
					OFFSET 0.000000 35.415497 -3.314200
					CHANNELS 3 Xrotation Yrotation Zrotation
					JOINT Head
					{
						OFFSET 0.000000 16.899200 1.218300
						CHANNELS 3 Xrotation Yrotation Zrotation
						JOINT HeadTop_End
						{
							OFFSET 0.000000 22.206207 2.192500
							CHANNELS 3 Xrotation Yrotation Zrotation
							End Site
							{
								OFFSET 0.000000 22.314178 0.000000
							}
						}
					}
				}
				JOINT LeftShoulder
				{
					OFFSET 12.896400 26.716293 -4.548400
					CHANNELS 3 Xrotation Yrotation Zrotation
					JOINT LeftArm
					{
						OFFSET 19.027000 -4.857010 -1.718400
						CHANNELS 3 Xrotation Yrotation Zrotation
						JOINT LeftForeArm
						{
							OFFSET 24.179897 0.000000 0.000000
							CHANNELS 3 Xrotation Yrotation Zrotation
							JOINT LeftHand
							{
								OFFSET 27.156403 0.000000 0.000000
								CHANNELS 3 Xrotation Yrotation Zrotation
								JOINT LeftHandIndex1
								{
									OFFSET 16.441200 0.000000 0.000000
									CHANNELS 3 Xrotation Yrotation Zrotation
									JOINT LeftHandIndex2
									{
										OFFSET 4.821899 0.000000 0.000000
										CHANNELS 3 Xrotation Yrotation Zrotation
										JOINT LeftHandIndex3
										{
											OFFSET 6.386497 0.000000 0.000000
											CHANNELS 3 Xrotation Yrotation Zrotation
											JOINT LeftHandIndex4
											{
												OFFSET 5.188988 0.000000 0.000000
												CHANNELS 3 Xrotation Yrotation Zrotation
												End Site
												{
													OFFSET -0.178703 5.185913 0.000177
												}
											}
										}
									}
								}
								JOINT LeftHandThumb1
								{
									OFFSET 6.534897 -5.032593 5.900300
									CHANNELS 3 Xrotation Yrotation Zrotation
									JOINT LeftHandThumb2
									{
										OFFSET 3.818176 -2.204422 2.204423
										CHANNELS 3 Xrotation Yrotation Zrotation
										JOINT LeftHandThumb3
										{
											OFFSET 3.252098 -1.877594 1.877601
											CHANNELS 3 Xrotation Yrotation Zrotation
											JOINT LeftHandThumb4
											{
												OFFSET 5.251778 -3.032120 3.032117
												CHANNELS 3 Xrotation Yrotation Zrotation
												End Site
												{
													OFFSET 0.000023 6.780014 0.000000
												}
											}
										}
									}
								}
							}
						}
					}
				}
				JOINT RightShoulder
				{
					OFFSET -12.896300 26.716293 -4.548400
					CHANNELS 3 Xrotation Yrotation Zrotation
					JOINT RightArm
					{
						OFFSET -19.027000 -4.857010 -1.718400
						CHANNELS 3 Xrotation Yrotation Zrotation
						JOINT RightForeArm
						{
							OFFSET -24.179897 0.000000 0.000000
							CHANNELS 3 Xrotation Yrotation Zrotation
							JOINT RightHand
							{
								OFFSET -27.156403 0.000000 0.000000
								CHANNELS 3 Xrotation Yrotation Zrotation
								JOINT RightHandThumb1
								{
									OFFSET -6.591202 -4.852203 5.988100
									CHANNELS 3 Xrotation Yrotation Zrotation
									JOINT RightHandThumb2
									{
										OFFSET -3.818176 -2.204422 2.204423
										CHANNELS 3 Xrotation Yrotation Zrotation
										JOINT RightHandThumb3
										{
											OFFSET -3.252098 -1.877594 1.877601
											CHANNELS 3 Xrotation Yrotation Zrotation
											JOINT RightHandThumb4
											{
												OFFSET -5.251778 -3.032120 3.032117
												CHANNELS 3 Xrotation Yrotation Zrotation
												End Site
												{
													OFFSET -0.000023 6.780014 0.000000
												}
											}
										}
									}
								}
								JOINT RightHandIndex1
								{
									OFFSET -16.029404 0.000000 0.000000
									CHANNELS 3 Xrotation Yrotation Zrotation
									JOINT RightHandIndex2
									{
										OFFSET -5.213303 0.000000 0.000000
										CHANNELS 3 Xrotation Yrotation Zrotation
										JOINT RightHandIndex3
										{
											OFFSET -6.386528 0.000000 0.000000
											CHANNELS 3 Xrotation Yrotation Zrotation
											JOINT RightHandIndex4
											{
												OFFSET -5.189026 0.000000 0.000000
												CHANNELS 3 Xrotation Yrotation Zrotation
												End Site
												{
													OFFSET 0.236702 5.183624 0.001972
												}
											}
										}
									}
								}
							}
						}
					}
				}
			}
		}
	}
	JOINT LeftUpLeg
	{
		OFFSET 14.073000 -7.904099 -1.463000
		CHANNELS 3 Xrotation Yrotation Zrotation
		JOINT LeftLeg
		{
			OFFSET -0.109806 -34.073280 4.093200
			CHANNELS 3 Xrotation Yrotation Zrotation
			JOINT LeftFoot
			{
				OFFSET 0.109806 -29.899420 -6.319000
				CHANNELS 3 Xrotation Yrotation Zrotation
				JOINT LeftToeBase
				{
					OFFSET 1.551100 -14.988700 20.535801
					CHANNELS 3 Xrotation Yrotation Zrotation
					JOINT LeftToe_End
					{
						OFFSET 0.221200 0.570800 13.248301
						CHANNELS 3 Xrotation Yrotation Zrotation
						End Site
						{
							OFFSET 0.000000 13.262435 0.000000
						}
					}
				}
			}
		}
	}
	JOINT RightUpLeg
	{
		OFFSET -13.839300 -7.904099 -1.463000
		CHANNELS 3 Xrotation Yrotation Zrotation
		JOINT RightLeg
		{
			OFFSET 0.109694 -34.073219 4.093300
			CHANNELS 3 Xrotation Yrotation Zrotation
			JOINT RightFoot
			{
				OFFSET -0.109694 -29.899384 -6.319200
				CHANNELS 3 Xrotation Yrotation Zrotation
				JOINT RightToeBase
				{
					OFFSET -1.551100 -14.988700 20.535801
					CHANNELS 3 Xrotation Yrotation Zrotation
					JOINT RightToe_End
					{
						OFFSET -0.221200 0.570900 13.248299
						CHANNELS 3 Xrotation Yrotation Zrotation
						End Site
						{
							OFFSET 0.000000 13.262440 0.000000
						}
					}
				}
			}
		}
	}
}
MOTION
Frames: 8
Frame Time: 0.033333
-1.013670 83.180466 0.631903 6.817880 -50.281325 8.509880 0.952500 -0.294565 -3.730928 1.115733 0.162542 -1.345205 1.119197 0.148305 -1.341508 3.990032 0.944871 0.630103 -7.832490 3.751304 4.300914 -0.000000 0.000002 -0.000000 0.299578 -8.371483 -16.366942 18.503891 -15.878714 -52.050437 -0.000006 -17.851248 -0.000008 -43.929618 24.717826 5.325070 2.878046 7.353398 -58.659679 6.385727 5.826666 -95.251858 2.817839 5.005789 -58.730550 0.000000 -0.000001 -0.000000 2.333993 -4.852055 -3.963515 13.533746 36.265900 -6.789646 18.237537 69.607612 3.188337 -0.000004 -0.000001 -0.000000 0.455185 7.929445 13.072196 3.343299 12.754227 63.356616 -15.598315 28.584553 14.323523 -4.786915 -4.214697 -9.080158 12.145598 0.873658 -3.809433 8.168350 -29.948310 -3.235274 -6.860695 -4.008020 -22.760320 0.000003 0.000000 -0.000004 0.450250 1.407535 7.648653 0.535903 -2.170834 27.731094 0.163410 -1.224118 15.206972 0.000002 -0.000004 -0.000005 4.177123 4.539155 4.225369 16.556595 8.455249 2.412430 -20.444853 10.552050 -15.857570 -0.000002 0.000007 -0.000001 0.000000 -0.000000 0.000000 -35.200596 -4.966214 -16.226166 13.760897 -8.866572 -4.145172 19.517320 -8.338351 13.193111 -0.000014 0.000035 -0.000020 0.000000 -0.000000 0.000000 
-1.080434 83.200333 0.679142 6.844238 -50.254852 8.441354 0.947212 -0.313276 -3.703843 1.112330 0.140565 -1.338683 1.115548 0.126529 -1.335072 4.006171 0.852191 0.634597 -7.892748 3.191128 4.514307 0.000000 0.000004 -0.000000 0.296529 -8.407545 -16.388183 18.609125 -15.803080 -52.097083 0.000001 -17.816021 0.000015 -43.816818 24.690953 5.352892 2.878046 7.353395 -58.659679 6.385724 5.826662 -95.251851 2.817846 5.005785 -58.730543 -0.000000 -0.000001 -0.000000 2.333992 -4.852058 -3.963515 13.533750 36.265907 -6.789646 18.237541 69.607619 3.188350 -0.000000 0.000002 -0.000001 0.455496 7.912457 13.073941 3.261390 12.678700 63.371588 -15.473551 28.496319 14.181845 -4.793190 -4.324766 -9.065120 11.856909 1.073107 -3.573973 8.158096 -29.858134 -3.229903 -6.295541 -5.755340 -22.628360 -0.000001 0.000002 0.000002 0.338583 1.158942 9.301536 0.604472 -2.296449 29.490305 0.183605 -1.296104 16.125132 -0.000000 0.000000 -0.000000 4.165513 4.598004 4.353377 16.576751 8.474279 2.422198 -20.357357 10.445765 -15.928558 -0.000002 0.000001 -0.000007 0.000000 -0.000001 -0.000000 -35.074364 -5.024623 -16.141270 13.674262 -8.881529 -4.107981 19.473537 -8.391753 13.097105 -0.000042 0.000014 -0.000046 0.000000 -0.000001 -0.000000 
-1.141376 83.209320 0.719043 6.875695 -50.190255 8.380292 0.939882 -0.325364 -3.689446 1.106950 0.125549 -1.335282 1.109985 0.111770 -1.331708 4.002227 0.747160 0.635576 -7.927094 2.573328 4.720503 -0.000000 -0.000001 0.000000 0.294192 -8.432714 -16.407559 18.642875 -15.775664 -52.099201 0.000021 -17.789168 -0.000006 -43.774184 24.687855 5.390699 2.878045 7.353395 -58.659679 6.385730 5.826665 -95.251851 2.817844 5.005788 -58.730550 0.000002 0.000002 0.000000 2.333988 -4.852055 -3.963514 13.533743 36.265900 -6.789646 18.237539 69.607619 3.188343 -0.000002 0.000001 -0.000000 0.456147 7.897215 13.060929 3.237077 12.660668 63.377332 -15.427531 28.471495 14.126931 -4.796773 -4.394537 -9.042402 11.542871 1.288847 -3.314956 8.146929 -29.759882 -3.224022 -5.687563 -7.659441 -22.456591 -0.000002 -0.000003 0.000002 0.229217 0.884317 11.102262 0.683562 -2.430877 31.407915 0.206928 -1.374175 17.125835 0.000000 -0.000004 -0.000001 4.127949 4.639002 4.478810 16.626823 8.490057 2.438560 -20.335415 10.345195 -15.996117 -0.000002 -0.000003 -0.000001 0.000000 -0.000001 -0.000000 -35.002069 -5.051568 -16.075600 13.706628 -8.894895 -4.109294 19.383300 -8.480926 13.127592 -0.000001 0.000021 0.000000 0.000000 0.000000 -0.000000 
-1.176549 83.218819 0.747203 6.911404 -50.096494 8.321876 0.936126 -0.324895 -3.683798 1.105062 0.123239 -1.337642 1.108042 0.109682 -1.334017 3.983571 0.626937 0.635473 -7.873583 1.890030 4.921707 -0.000000 -0.000002 -0.000000 0.293042 -8.449186 -16.411473 18.643483 -15.780309 -52.049870 0.000011 -17.850341 -0.000001 -43.758946 24.772452 5.459150 2.878046 7.353396 -58.659679 6.385725 5.826661 -95.251851 2.817840 5.005788 -58.730550 0.000000 0.000001 0.000001 2.333992 -4.852056 -3.963515 13.533748 36.265904 -6.789648 18.237534 69.607619 3.188343 -0.000001 0.000002 -0.000003 0.456417 7.898357 13.039309 3.260000 12.702780 63.362647 -15.442646 28.512584 14.148278 -4.797910 -4.424606 -9.017138 11.206442 1.518710 -3.033697 8.134929 -29.654335 -3.217710 -5.045114 -9.704820 -22.237605 -0.000003 -0.000002 -0.000002 0.126197 0.585676 13.035669 0.773481 -2.572224 33.467852 0.233481 -1.457551 18.200656 0.000002 -0.000003 -0.000002 4.065788 4.655139 4.589694 16.676064 8.504555 2.463243 -20.358210 10.256105 -16.032672 -0.000005 0.000004 0.000002 0.000000 0.000002 0.000000 -34.924284 -5.070187 -16.019611 13.689877 -8.917758 -4.119927 19.343067 -8.598557 13.180812 0.000005 -0.000004 -0.000001 -0.000000 -0.000000 0.000000 
-1.175874 83.223946 0.760023 6.957052 -49.993583 8.274779 0.941038 -0.308417 -3.689355 1.111561 0.138517 -1.346281 1.114668 0.125101 -1.342457 3.968618 0.493348 0.638823 -7.658489 1.157191 5.126428 -0.000001 -0.000001 0.000000 0.292969 -8.463786 -16.393395 18.633656 -15.819490 -51.941557 0.000001 -18.054195 0.000005 -43.837916 24.968808 5.591543 2.878047 7.353394 -58.659679 6.385724 5.826672 -95.251858 2.817841 5.005786 -58.730550 -0.000006 -0.000001 -0.000001 2.333992 -4.852056 -3.963517 13.533742 36.265904 -6.789647 18.237536 69.607619 3.188338 -0.000002 -0.000001 -0.000001 0.455554 7.930020 13.018385 3.302154 12.783395 63.318633 -15.495961 28.600229 14.213856 -4.798165 -4.437013 -8.996305 10.856228 1.756546 -2.736818 8.122391 -29.544192 -3.211101 -4.383486 -11.839256 -21.971834 -0.000000 -0.000001 0.000002 0.034733 0.270613 15.053050 0.872696 -2.716196 35.618262 0.262860 -1.544035 19.322561 -0.000002 -0.000001 0.000000 3.959483 4.659458 4.682405 16.764412 8.508273 2.484990 -20.452127 10.186193 -16.027411 0.000004 -0.000013 0.000008 0.000000 0.000001 0.000000 -34.848889 -5.085243 -15.971808 13.591405 -8.944624 -4.120325 19.379972 -8.732357 13.192394 -0.000028 -0.000008 -0.000033 0.000000 -0.000000 -0.000000 
-1.147124 83.203529 0.757738 7.016638 -49.906280 8.256958 0.958355 -0.277444 -3.716359 1.129668 0.173152 -1.357466 1.133104 0.159557 -1.353270 3.980043 0.350714 0.646856 -7.232726 0.395282 5.349247 -0.000000 0.000004 -0.000000 0.293132 -8.481164 -16.366315 18.613985 -15.903066 -51.763036 -0.000003 -18.397714 0.000013 -44.124251 25.249416 5.824932 2.878044 7.353395 -58.659679 6.385725 5.826666 -95.251851 2.817840 5.005789 -58.730543 -0.000002 -0.000001 -0.000000 2.333992 -4.852057 -3.963514 13.533747 36.265907 -6.789646 18.237549 69.607619 3.188348 -0.000001 0.000001 -0.000000 0.453657 7.994549 12.994312 3.341198 12.873669 63.246165 -15.602765 28.717155 14.311189 -4.799049 -4.457568 -8.981120 10.500180 1.996748 -2.430872 8.109625 -29.431910 -3.204363 -3.715730 -14.013526 -21.662561 -0.000003 0.000001 0.000002 -0.041503 -0.053284 17.108905 0.979333 -2.859039 37.810657 0.294561 -1.631543 20.466110 -0.000000 -0.000003 0.000001 3.794465 4.674505 4.754439 16.967003 8.487757 2.488534 -20.672498 10.150324 -15.988809 -0.000000 -0.000003 0.000000 0.000000 0.000000 0.000000 -34.864410 -5.071862 -15.942816 13.579213 -8.963367 -4.122587 19.412700 -8.862399 13.205709 -0.000021 -0.000021 -0.000013 0.000000 0.000000 -0.000000 
-1.091753 83.158371 0.745393 7.083757 -49.856730 8.269061 0.993383 -0.236288 -3.763635 1.163805 0.223763 -1.366169 1.167740 0.209662 -1.361456 4.029986 0.199923 0.654990 -6.577730 -0.401804 5.610141 0.000000 -0.000003 0.000000 0.292608 -8.499141 -16.354309 18.569263 -16.014470 -51.511586 0.000000 -18.847291 -0.000015 -44.618050 25.596390 6.155541 2.878049 7.353396 -58.659679 6.385724 5.826665 -95.251858 2.817847 5.005788 -58.730550 -0.000002 -0.000000 -0.000001 2.333993 -4.852057 -3.963514 13.533749 36.265907 -6.789646 18.237527 69.607612 3.188343 -0.000000 0.000000 -0.000001 0.451900 8.078300 12.948665 3.365524 12.954705 63.158295 -15.803808 28.869335 14.458983 -4.800287 -4.486810 -8.967580 10.144890 2.234804 -2.121375 8.096846 -29.319591 -3.197589 -3.052149 -16.187005 -21.314280 -0.000002 -0.000001 -0.000000 -0.100573 -0.379301 19.165487 1.091423 -2.997723 40.004486 0.327999 -1.718464 21.610304 -0.000001 -0.000001 0.000001 3.594480 4.704194 4.794315 17.260219 8.445059 2.472686 -20.983367 10.160170 -15.921770 -0.000001 0.000003 -0.000002 0.000000 0.000001 0.000000 -34.972741 -5.026659 -15.932526 13.660367 -8.968725 -4.131264 19.437171 -8.965247 13.235686 -0.000062 0.000021 -0.000065 0.000000 0.000000 0.000000 
-0.996265 83.120422 0.728986 7.156364 -49.858673 8.300537 1.051618 -0.193819 -3.815220 1.218587 0.280385 -1.371746 1.223100 0.265240 -1.366423 4.112414 0.037205 0.660874 -5.692079 -1.259848 5.922530 0.000001 0.000001 -0.000000 0.291086 -8.514130 -16.368886 18.451203 -16.101594 -51.205324 0.000007 -19.353085 -0.000018 -45.247756 26.026062 6.518170 2.878044 7.353394 -58.659679 6.385728 5.826667 -95.251858 2.817841 5.005788 -58.730543 -0.000000 0.000000 0.000001 2.333991 -4.852056 -3.963514 13.533747 36.265900 -6.789646 18.237543 69.607612 3.188343 -0.000002 -0.000000 -0.000001 0.451418 8.156927 12.872580 3.357724 13.008669 63.073539 -16.102302 29.080435 14.668666 -4.800127 -4.493724 -8.957522 9.797341 2.466087 -1.814525 8.084302 -29.209424 -3.190919 -2.403379 -18.316484 -20.934678 0.000001 -0.000002 -0.000000 -0.141707 -0.700203 21.182577 1.206465 -3.129487 42.156785 0.362488 -1.803062 22.732637 0.000001 -0.000002 0.000001 3.400062 4.729577 4.786902 17.519041 8.395629 2.449011 -21.250366 10.212860 -15.821590 -0.000004 0.000005 -0.000001 -0.000000 0.000001 0.000000 -35.050021 -4.983677 -15.925585 13.563393 -8.977154 -4.122750 19.589367 -9.019288 13.200063 -0.000024 -0.000000 -0.000031 0.000000 -0.000000 -0.000000 
